<svg width="216" height="163" viewBox="0 0 216 163" fill="none" xmlns="http://www.w3.org/2000/svg">
<rect width="216" height="163" fill="black"/>
<path d="M50.232 54.336C55.272 54.336 57.12 51.564 57.12 48.848C57.12 41.876 46.06 44.284 46.06 40.084C46.06 38.32 47.656 37.116 49.896 37.116C51.94 37.116 53.9 37.816 55.3 39.356L56.7 37.648C55.132 35.996 52.92 35.044 50.064 35.044C46.396 35.044 43.652 37.144 43.652 40.224C43.652 46.888 54.712 44.228 54.712 49.044C54.712 50.472 53.648 52.264 50.316 52.264C47.684 52.264 45.668 50.976 44.436 49.604L43.064 51.368C44.604 53.104 46.984 54.336 50.232 54.336Z" fill="white"/>
<path d="M66.4702 54.336C68.9342 54.336 70.3902 53.328 71.4262 51.984L70.0262 50.696C69.1302 51.9 67.9822 52.46 66.5822 52.46C63.6982 52.46 61.9062 50.22 61.9062 47.224C61.9062 44.228 63.6982 42.016 66.5822 42.016C67.9822 42.016 69.1302 42.548 70.0262 43.78L71.4262 42.492C70.3902 41.148 68.9342 40.14 66.4702 40.14C62.4382 40.14 59.7222 43.22 59.7222 47.224C59.7222 51.256 62.4382 54.336 66.4702 54.336Z" fill="white"/>
<path d="M84.9255 54V44.704C84.9255 41.428 82.5455 40.14 79.6895 40.14C77.4775 40.14 75.7415 40.868 74.2855 42.38L75.2655 43.836C76.4695 42.548 77.7855 41.96 79.4095 41.96C81.3695 41.96 82.8255 42.996 82.8255 44.816V47.252C81.7335 45.992 80.1935 45.404 78.3455 45.404C76.0495 45.404 73.6135 46.832 73.6135 49.856C73.6135 52.796 76.0495 54.336 78.3455 54.336C80.1655 54.336 81.7055 53.692 82.8255 52.46V54H84.9255ZM79.1015 52.824C77.1415 52.824 75.7695 51.592 75.7695 49.884C75.7695 48.148 77.1415 46.916 79.1015 46.916C80.5855 46.916 82.0135 47.476 82.8255 48.596V51.144C82.0135 52.264 80.5855 52.824 79.1015 52.824Z" fill="white"/>
<path d="M91.2352 54V35.324H89.1352V54H91.2352Z" fill="white"/>
<path d="M105.98 54V44.704C105.98 41.428 103.6 40.14 100.744 40.14C98.5322 40.14 96.7962 40.868 95.3402 42.38L96.3202 43.836C97.5242 42.548 98.8402 41.96 100.464 41.96C102.424 41.96 103.88 42.996 103.88 44.816V47.252C102.788 45.992 101.248 45.404 99.4002 45.404C97.1042 45.404 94.6682 46.832 94.6682 49.856C94.6682 52.796 97.1042 54.336 99.4002 54.336C101.22 54.336 102.76 53.692 103.88 52.46V54H105.98ZM100.156 52.824C98.1962 52.824 96.8242 51.592 96.8242 49.884C96.8242 48.148 98.1962 46.916 100.156 46.916C101.64 46.916 103.068 47.476 103.88 48.596V51.144C103.068 52.264 101.64 52.824 100.156 52.824Z" fill="white"/>
<path d="M112.29 50.332V44.2C113.018 43.024 114.67 42.016 116.322 42.016C119.066 42.016 120.69 44.256 120.69 47.252C120.69 50.248 119.066 52.46 116.322 52.46C114.67 52.46 113.018 51.508 112.29 50.332ZM112.29 54V51.984C113.298 53.356 114.95 54.336 116.854 54.336C120.382 54.336 122.874 51.648 122.874 47.252C122.874 42.94 120.382 40.14 116.854 40.14C115.006 40.14 113.382 41.036 112.29 42.52V35.324H110.19V54H112.29Z" fill="white"/>
<path d="M128.395 54V35.324H126.295V54H128.395Z" fill="white"/>
<path d="M138.688 54.336C140.9 54.336 142.72 53.608 144.064 52.264L143.056 50.892C141.992 51.984 140.424 52.6 138.884 52.6C135.972 52.6 134.18 50.472 134.012 47.924H144.96V47.392C144.96 43.332 142.552 40.14 138.464 40.14C134.6 40.14 131.8 43.304 131.8 47.224C131.8 51.452 134.684 54.336 138.688 54.336ZM142.888 46.384H134.012C134.124 44.312 135.552 41.876 138.436 41.876C141.516 41.876 142.86 44.368 142.888 46.384Z" fill="white"/>
<path d="M50.568 88C56.364 88 60.144 83.996 60.144 78.676C60.144 73.384 56.364 69.324 50.568 69.324H44.184V88H50.568ZM50.568 85.928H46.508V71.396H50.568C55.188 71.396 57.736 74.644 57.736 78.676C57.736 82.68 55.104 85.928 50.568 85.928Z" fill="white"/>
<path d="M69.8095 88.336C72.0215 88.336 73.8415 87.608 75.1855 86.264L74.1775 84.892C73.1135 85.984 71.5455 86.6 70.0055 86.6C67.0935 86.6 65.3015 84.472 65.1335 81.924H76.0815V81.392C76.0815 77.332 73.6735 74.14 69.5855 74.14C65.7215 74.14 62.9215 77.304 62.9215 81.224C62.9215 85.452 65.8055 88.336 69.8095 88.336ZM74.0095 80.384H65.1335C65.2455 78.312 66.6735 75.876 69.5575 75.876C72.6375 75.876 73.9815 78.368 74.0095 80.384Z" fill="white"/>
<path d="M83.7668 88.336C87.2668 88.336 89.0868 86.516 89.0868 84.248C89.0868 78.984 80.7148 80.944 80.7148 77.976C80.7148 76.772 81.8628 75.848 83.7108 75.848C85.4468 75.848 86.9308 76.576 87.7428 77.556L88.7228 76.1C87.6308 75.008 86.0068 74.14 83.7108 74.14C80.4908 74.14 78.6708 75.932 78.6708 78.032C78.6708 83.044 87.0428 81.028 87.0428 84.304C87.0428 85.648 85.9228 86.628 83.8508 86.628C82.0028 86.628 80.2948 85.732 79.3988 84.696L78.3068 86.208C79.6788 87.664 81.5548 88.336 83.7668 88.336Z" fill="white"/>
<path d="M93.5344 72.544C94.3184 72.544 94.9624 71.928 94.9624 71.144C94.9624 70.36 94.3184 69.716 93.5344 69.716C92.7784 69.716 92.1344 70.36 92.1344 71.144C92.1344 71.928 92.7784 72.544 93.5344 72.544ZM94.5984 88V74.476H92.4984V88H94.5984Z" fill="white"/>
<path d="M104.219 93.488C107.523 93.488 110.659 92.088 110.659 87.608V74.476H108.559V76.52C107.467 75.036 105.843 74.14 104.023 74.14C100.467 74.14 98.0035 76.828 98.0035 81.168C98.0035 85.536 100.495 88.168 104.023 88.168C105.927 88.168 107.579 87.132 108.559 85.76V87.692C108.559 90.66 106.459 91.752 104.219 91.752C102.287 91.752 100.943 91.248 99.8235 89.904L98.7595 91.472C100.355 93.04 101.923 93.488 104.219 93.488ZM104.527 86.32C101.811 86.32 100.187 84.136 100.187 81.168C100.187 78.172 101.811 76.016 104.527 76.016C106.207 76.016 107.831 77.024 108.559 78.2V84.108C107.831 85.284 106.207 86.32 104.527 86.32Z" fill="white"/>
<path d="M126.094 88V78.508C126.094 75.568 124.61 74.14 121.782 74.14C119.766 74.14 117.918 75.316 116.966 76.436V74.476H114.866V88H116.966V78.116C117.75 77.024 119.318 76.016 120.97 76.016C122.79 76.016 123.994 76.772 123.994 79.152V88H126.094Z" fill="white"/>
<path d="M50.232 122.336C55.272 122.336 57.12 119.564 57.12 116.848C57.12 109.876 46.06 112.284 46.06 108.084C46.06 106.32 47.656 105.116 49.896 105.116C51.94 105.116 53.9 105.816 55.3 107.356L56.7 105.648C55.132 103.996 52.92 103.044 50.064 103.044C46.396 103.044 43.652 105.144 43.652 108.224C43.652 114.888 54.712 112.228 54.712 117.044C54.712 118.472 53.648 120.264 50.316 120.264C47.684 120.264 45.668 118.976 44.436 117.604L43.064 119.368C44.604 121.104 46.984 122.336 50.232 122.336Z" fill="white"/>
<path d="M59.5862 127.292C59.9782 127.404 60.6782 127.488 61.1262 127.488C62.9182 127.46 64.2902 126.704 65.1022 124.744L71.8782 108.476H69.5822L65.1022 119.564L60.5942 108.476H58.3262L63.9822 122.14L63.0862 124.184C62.6102 125.304 61.9942 125.612 61.0702 125.612C60.7342 125.612 60.2302 125.528 59.9222 125.388L59.5862 127.292Z" fill="white"/>
<path d="M78.3527 122.336C81.8527 122.336 83.6727 120.516 83.6727 118.248C83.6727 112.984 75.3007 114.944 75.3007 111.976C75.3007 110.772 76.4487 109.848 78.2967 109.848C80.0327 109.848 81.5167 110.576 82.3287 111.556L83.3087 110.1C82.2167 109.008 80.5927 108.14 78.2967 108.14C75.0767 108.14 73.2567 109.932 73.2567 112.032C73.2567 117.044 81.6287 115.028 81.6287 118.304C81.6287 119.648 80.5087 120.628 78.4367 120.628C76.5887 120.628 74.8807 119.732 73.9847 118.696L72.8927 120.208C74.2647 121.664 76.1407 122.336 78.3527 122.336Z" fill="white"/>
<path d="M90.5004 122.336C91.7324 122.336 92.4884 121.972 93.0204 121.468L92.4044 119.9C92.1244 120.208 91.5644 120.46 90.9764 120.46C90.0524 120.46 89.6044 119.732 89.6044 118.724V110.324H92.3484V108.476H89.6044V104.78H87.5044V108.476H85.2644V110.324H87.5044V119.172C87.5044 121.188 88.5124 122.336 90.5004 122.336Z" fill="white"/>
<path d="M101.419 122.336C103.631 122.336 105.451 121.608 106.795 120.264L105.787 118.892C104.723 119.984 103.155 120.6 101.615 120.6C98.7028 120.6 96.9108 118.472 96.7428 115.924H107.691V115.392C107.691 111.332 105.283 108.14 101.195 108.14C97.3308 108.14 94.5308 111.304 94.5308 115.224C94.5308 119.452 97.4148 122.336 101.419 122.336ZM105.619 114.384H96.7428C96.8548 112.312 98.2828 109.876 101.167 109.876C104.247 109.876 105.591 112.368 105.619 114.384Z" fill="white"/>
<path d="M129.516 122V112.228C129.516 109.512 128.2 108.14 125.736 108.14C123.776 108.14 121.956 109.428 121.2 110.66C120.808 109.26 119.632 108.14 117.56 108.14C115.572 108.14 113.752 109.568 113.192 110.436V108.476H111.092V122H113.192V112.116C113.92 111.024 115.376 110.016 116.748 110.016C118.512 110.016 119.24 111.108 119.24 112.816V122H121.34V112.088C122.04 111.024 123.524 110.016 124.924 110.016C126.66 110.016 127.416 111.108 127.416 112.816V122H129.516Z" fill="white"/>
<path d="M137.989 122.336C141.489 122.336 143.309 120.516 143.309 118.248C143.309 112.984 134.937 114.944 134.937 111.976C134.937 110.772 136.085 109.848 137.933 109.848C139.669 109.848 141.153 110.576 141.965 111.556L142.945 110.1C141.853 109.008 140.229 108.14 137.933 108.14C134.713 108.14 132.893 109.932 132.893 112.032C132.893 117.044 141.265 115.028 141.265 118.304C141.265 119.648 140.145 120.628 138.073 120.628C136.225 120.628 134.517 119.732 133.621 118.696L132.529 120.208C133.901 121.664 135.777 122.336 137.989 122.336Z" fill="white"/>
</svg>
